FFmpeg version SVN-r25716, Copyright (c) 2000-2010 the FFmpeg developers  built on Nov 10 2010 12:23:18 with gcc 4.1.2 20080704 (Red Hat 4.1.2-48)  configuration: --enable-libmp3lame --enable-shared --disable-mmx --arch=x86_64  libavutil     50.33. 0 / 50.33. 0  libavcore      0.12. 1 /  0.12. 1  libavcodec    52.94. 4 / 52.94. 4  libavformat   52.84. 0 / 52.84. 0  libavdevice   52. 2. 2 / 52. 2. 2  libavfilter    1.59. 0 /  1.59. 0  libswscale     0.12. 0 /  0.12. 0Seems stream 0 codec frame rate differs from container frame rate: 1200.00 (1200/1) -> 10.00 (10/1)Input #0, mov,mp4,m4a,3gp,3g2,mj2, from '/RAID10/data/converted_video_files/7792.mov':  Metadata:    major_brand     : qt      minor_version   : 537199360    compatible_brands: qt    Duration: 00:00:26.00, start: 0.000000, bitrate: 589 kb/s    Stream #0.0(eng): Video: h264, yuv420p, 650x516, 587 kb/s, 10 fps, 10 tbr, 600 tbn, 1200 tbc[buffer @ 0x1e342fc0] w:650 h:516 pixfmt:yuv420pOutput #0, flv, to '/RAID10/data/converted_video_files/7792.flv':  Metadata:    encoder         : Lavf52.84.0    Stream #0.0(eng): Video: flv, yuv420p, 650x516, q=2-31, 600 kb/s, 1k tbn, 24 tbcStream mapping:  Stream #0.0 -> #0.0Press [q] to stop encodingframe=   35 fps=  0 q=3.6 size=     221kB time=3.46 bitrate= 524.2kbits/s    frame=   72 fps= 70 q=3.2 size=     407kB time=7.12 bitrate= 468.0kbits/s    frame=  105 fps= 69 q=3.4 size=     600kB time=10.46 bitrate= 469.6kbits/s    frame=  137 fps= 67 q=3.4 size=     799kB time=13.62 bitrate= 480.7kbits/s    frame=  163 fps= 64 q=4.7 size=     997kB time=16.25 bitrate= 502.8kbits/s    frame=  187 fps= 61 q=6.7 size=    1191kB time=18.62 bitrate= 523.7kbits/s    frame=  212 fps= 59 q=5.4 size=    1373kB time=21.12 bitrate= 532.6kbits/s    frame=  241 fps= 59 q=4.4 size=    1563kB time=24.04 bitrate= 532.6kbits/s    frame=  260 fps= 58 q=7.7 Lsize=    1703kB time=25.96 bitrate= 537.5kbits/s    video:1699kB audio:0kB global headers:0kB muxing overhead 0.251186%